<svg width="74" height="19" viewBox="0 0 74 19" fill="none" xmlns="http://www.w3.org/2000/svg">
<path d="M13.2376 3.78647C14.5128 3.78647 15.5113 4.17143 16.2331 4.94135C16.9669 5.71128 17.3338 6.76391 17.3338 8.09925V14H13.797V8.56842C13.797 8.02707 13.6466 7.60601 13.3459 7.30526C13.0451 7.00451 12.6361 6.85413 12.1188 6.85413C11.6015 6.85413 11.1925 7.00451 10.8917 7.30526C10.591 7.60601 10.4406 8.02707 10.4406 8.56842V14H6.90376V8.56842C6.90376 8.02707 6.75338 7.60601 6.45263 7.30526C6.16391 7.00451 5.7609 6.85413 5.24361 6.85413C4.71429 6.85413 4.29925 7.00451 3.9985 7.30526C3.69774 7.60601 3.54737 8.02707 3.54737 8.56842V14H0.0105263V3.87669H3.54737V5.21203C3.86015 4.77895 4.26316 4.43609 4.75639 4.18346C5.26165 3.9188 5.8391 3.78647 6.48872 3.78647C7.23459 3.78647 7.89624 3.94887 8.47368 4.27368C9.06316 4.5985 9.52632 5.05564 9.86316 5.64511C10.2241 5.09173 10.6992 4.64662 11.2887 4.30977C11.8782 3.9609 12.5278 3.78647 13.2376 3.78647ZM30.1708 3.87669L23.7468 18.818H19.9031L22.3212 13.5669L18.1708 3.87669H22.1047L24.234 9.61504L26.2911 3.87669H30.1708ZM38.0868 0.646616V14H34.55V0.646616H38.0868ZM44.8108 14.1263C43.8002 14.1263 42.892 13.9158 42.086 13.4947C41.292 13.0737 40.6664 12.4722 40.2093 11.6902C39.7521 10.9083 39.5235 9.98797 39.5235 8.92932C39.5235 7.88271 39.7521 6.96842 40.2093 6.18647C40.6784 5.40451 41.31 4.80301 42.104 4.38195C42.91 3.9609 43.8183 3.75038 44.8288 3.75038C45.8393 3.75038 46.7416 3.9609 47.5356 4.38195C48.3416 4.80301 48.9732 5.40451 49.4303 6.18647C49.8995 6.96842 50.1341 7.88271 50.1341 8.92932C50.1341 9.97594 49.8995 10.8962 49.4303 11.6902C48.9732 12.4722 48.3416 13.0737 47.5356 13.4947C46.7296 13.9158 45.8213 14.1263 44.8108 14.1263ZM44.8108 11.0586C45.304 11.0586 45.713 10.8782 46.0378 10.5173C46.3747 10.1444 46.5431 9.61504 46.5431 8.92932C46.5431 8.24361 46.3747 7.7203 46.0378 7.3594C45.713 6.9985 45.31 6.81804 44.8288 6.81804C44.3476 6.81804 43.9446 6.9985 43.6198 7.3594C43.295 7.7203 43.1326 8.24361 43.1326 8.92932C43.1326 9.62707 43.289 10.1564 43.6017 10.5173C43.9145 10.8782 44.3175 11.0586 44.8108 11.0586ZM55.3084 3.75038C55.9941 3.75038 56.5896 3.88872 57.0948 4.16541C57.6121 4.44211 58.0091 4.81504 58.2858 5.28421V3.87669H61.8227V13.8917C61.8227 14.8421 61.6422 15.6962 61.2813 16.4541C60.9204 17.2241 60.355 17.8376 59.5851 18.2947C58.8272 18.7519 57.8648 18.9805 56.6978 18.9805C55.1339 18.9805 53.8828 18.6135 52.9445 17.8797C52.0061 17.1459 51.4708 16.1474 51.3384 14.8842H54.8211C54.8933 15.209 55.0738 15.4617 55.3625 15.6421C55.6512 15.8226 56.0242 15.9128 56.4813 15.9128C57.6843 15.9128 58.2858 15.2391 58.2858 13.8917V12.5925C58.0091 13.0617 57.6121 13.4346 57.0948 13.7113C56.5896 13.988 55.9941 14.1263 55.3084 14.1263C54.5023 14.1263 53.7685 13.9158 53.1069 13.4947C52.4572 13.0737 51.9399 12.4722 51.555 11.6902C51.182 10.8962 50.9956 9.97594 50.9956 8.92932C50.9956 7.88271 51.182 6.96842 51.555 6.18647C51.9399 5.40451 52.4572 4.80301 53.1069 4.38195C53.7685 3.9609 54.5023 3.75038 55.3084 3.75038ZM58.2858 8.92932C58.2858 8.2797 58.1054 7.76842 57.7445 7.39549C57.3956 7.02256 56.9625 6.83609 56.4452 6.83609C55.9159 6.83609 55.4768 7.02256 55.1279 7.39549C54.779 7.75639 54.6046 8.26767 54.6046 8.92932C54.6046 9.57895 54.779 10.0962 55.1279 10.4812C55.4768 10.8541 55.9159 11.0406 56.4452 11.0406C56.9625 11.0406 57.3956 10.8541 57.7445 10.4812C58.1054 10.1083 58.2858 9.59098 58.2858 8.92932ZM68.5478 14.1263C67.5373 14.1263 66.629 13.9158 65.823 13.4947C65.029 13.0737 64.4035 12.4722 63.9463 11.6902C63.4892 10.9083 63.2606 9.98797 63.2606 8.92932C63.2606 7.88271 63.4892 6.96842 63.9463 6.18647C64.4155 5.40451 65.0471 4.80301 65.8411 4.38195C66.6471 3.9609 67.5554 3.75038 68.5659 3.75038C69.5764 3.75038 70.4787 3.9609 71.2727 4.38195C72.0787 4.80301 72.7102 5.40451 73.1674 6.18647C73.6366 6.96842 73.8711 7.88271 73.8711 8.92932C73.8711 9.97594 73.6366 10.8962 73.1674 11.6902C72.7102 12.4722 72.0787 13.0737 71.2727 13.4947C70.4666 13.9158 69.5584 14.1263 68.5478 14.1263ZM68.5478 11.0586C69.0411 11.0586 69.4501 10.8782 69.7749 10.5173C70.1117 10.1444 70.2802 9.61504 70.2802 8.92932C70.2802 8.24361 70.1117 7.7203 69.7749 7.3594C69.4501 6.9985 69.0471 6.81804 68.5659 6.81804C68.0847 6.81804 67.6817 6.9985 67.3569 7.3594C67.032 7.7203 66.8696 8.24361 66.8696 8.92932C66.8696 9.62707 67.026 10.1564 67.3388 10.5173C67.6516 10.8782 68.0546 11.0586 68.5478 11.0586Z" fill="white"/>
</svg>
